<?xml version="1.0" encoding="UTF-8" standalone="no"?>
<!-- Created with Inkscape (http://www.inkscape.org/) -->

<svg
   width="512"
   height="512"
   viewBox="0 0 512 512"
   version="1.1"
   id="svg5"
   inkscape:version="1.1.1 (eb90963e84, 2021-10-02)"
   sodipodi:docname="Blorbo.svg"
   xmlns:inkscape="http://www.inkscape.org/namespaces/inkscape"
   xmlns:sodipodi="http://sodipodi.sourceforge.net/DTD/sodipodi-0.dtd"
   xmlns:xlink="http://www.w3.org/1999/xlink"
   xmlns="http://www.w3.org/2000/svg"
   xmlns:svg="http://www.w3.org/2000/svg">
  <sodipodi:namedview
     id="namedview7"
     pagecolor="#ffffff"
     bordercolor="#666666"
     borderopacity="1.0"
     inkscape:pageshadow="2"
     inkscape:pageopacity="1"
     inkscape:pagecheckerboard="true"
     inkscape:document-units="px"
     showgrid="false"
     inkscape:zoom="1.2056723"
     inkscape:cx="226.84439"
     inkscape:cy="347.10924"
     inkscape:window-width="2492"
     inkscape:window-height="1376"
     inkscape:window-x="1988"
     inkscape:window-y="27"
     inkscape:window-maximized="1"
     inkscape:current-layer="layer1" />
  <defs
     id="defs2">
    <color-profile
       name="Artifex-CMYK-SWOP-Profile"
       xlink:href="file:///snap/inkscape/9256/usr/share/color/icc/ghostscript/default_cmyk.icc"
       id="color-profile6559" />
  </defs>
  <g
     inkscape:label="Layer 1"
     inkscape:groupmode="layer"
     id="layer1">
    <ellipse
       style="fill:#ffffff;stroke:#000000;stroke-width:8;stroke-miterlimit:4;stroke-dasharray:none;fill-opacity:1"
       id="path868"
       cy="290.5632"
       cx="255.5632"
       rx="200"
       ry="220" />
    <path
       style="fill:#000000;fill-opacity:1;stroke:none;stroke-width:0;stroke-miterlimit:4;stroke-dasharray:none"
       id="path2304"
       sodipodi:type="arc"
       sodipodi:cx="366.87677"
       sodipodi:cy="258.54822"
       sodipodi:rx="33.074669"
       sodipodi:ry="75.63166"
       sodipodi:start="0"
       sodipodi:end="6.2762389"
       sodipodi:open="true"
       sodipodi:arc-type="arc"
       d="m 399.95144,258.54822 a 33.074669,75.63166 0 0 1 -33.01723,75.63154 33.074669,75.63166 0 0 1 -33.13191,-75.36886 33.074669,75.63166 0 0 1 32.90216,-75.89332 33.074669,75.63166 0 0 1 33.24618,75.10527" />
    <path
       style="fill:#00a8fe;fill-opacity:1;stroke:none;stroke-width:0;stroke-miterlimit:4;stroke-dasharray:none"
       id="path2955"
       sodipodi:type="arc"
       sodipodi:cx="380.70178"
       sodipodi:cy="247.77242"
       sodipodi:rx="10.631676"
       sodipodi:ry="23.351788"
       sodipodi:start="0"
       sodipodi:end="6.2762389"
       sodipodi:open="true"
       sodipodi:arc-type="arc"
       d="m 391.33346,247.77242 a 10.631676,23.351788 0 0 1 -10.61321,23.35175 10.631676,23.351788 0 0 1 -10.65008,-23.27065 10.631676,23.351788 0 0 1 10.57622,-23.43258 10.631676,23.351788 0 0 1 10.68681,23.18927" />
    <path
       style="fill:#ffffff;fill-opacity:1;stroke:none;stroke-width:0;stroke-miterlimit:4;stroke-dasharray:none"
       id="path4750"
       sodipodi:type="arc"
       sodipodi:cx="377.642"
       sodipodi:cy="237.28114"
       sodipodi:rx="2.0077319"
       sodipodi:ry="4.8594599"
       sodipodi:start="0"
       sodipodi:end="6.2762389"
       sodipodi:open="true"
       sodipodi:arc-type="arc"
       d="m 379.64973,237.28114 a 2.0077319,4.8594599 0 0 1 -2.00425,4.85946 2.0077319,4.8594599 0 0 1 -2.0112,-4.84258 2.0077319,4.8594599 0 0 1 1.99726,-4.87627 2.0077319,4.8594599 0 0 1 2.01814,4.82564" />
    <rect
       style="fill:#000000;fill-opacity:1;stroke:none;stroke-width:0;stroke-miterlimit:4;stroke-dasharray:none"
       id="rect5220"
       width="83.994812"
       height="13.05222"
       x="324.81555"
       y="376.99704" />
  </g>
</svg>
